<!-- Copyright 2000-2023 JetBrains s.r.o. and contributors. Use of this source code is governed by the Apache 2.0 license. -->
<svg width="16" height="16" viewBox="0 0 16 16" fill="none" xmlns="http://www.w3.org/2000/svg">
    <g clip-path="url(#clip0_12362_11796)">
        <path d="M4 4V12C4 13.1046 4.89543 14 6 14H8V10C8 8.89543 8.89543 8 10 8H12V4C12 2.89543 11.1046 2 10 2H6C4.89543 2 4 2.89543 4 4Z" fill="#43454A"/>
        <path d="M6 2C4.89543 2 4 2.89543 4 4H1.5C1.22386 4 1 4.22386 1 4.5C1 4.77614 1.22386 5 1.5 5H3.99998L4 4V12L3.99998 11H1.5C1.22386 11 1 11.2239 1 11.5C1 11.7761 1.22386 12 1.5 12H4C4 13.1046 4.89543 14 6 14H8V13H6C5.44772 13 5 12.5523 5 12V4C5 3.44772 5.44772 3 6 3H10C10.5523 3 11 3.44772 11 4V8H12V5H14.5C14.7761 5 15 4.77614 15 4.5C15 4.22386 14.7761 4 14.5 4H12C12 2.89543 11.1046 2 10 2H6Z" fill="#CED0D6"/>
        <path d="M1.5 7.5C1.22386 7.5 1 7.72386 1 8C1 8.27614 1.22386 8.5 1.5 8.5H3.99998V7.5H1.5Z" fill="#CED0D6"/>
        <path d="M 11.412 12.408 C 11.854 12.408 12.211 12.049 12.211 11.608 C 12.211 11.165 11.854 10.807 11.412 10.807 C 10.968 10.807 10.611 11.165 10.611 11.608 C 10.611 12.049 10.968 12.408 11.412 12.408 Z" fill="#CED0D6" style="stroke-width: 1;"/>
        <path fill-rule="evenodd" clip-rule="evenodd" d="M 12.309 14.552 C 12.252 14.707 12.103 14.811 11.935 14.811 L 10.889 14.811 C 10.722 14.811 10.571 14.707 10.513 14.552 L 10.314 14.018 C 10.246 13.84 10.061 13.731 9.872 13.764 L 9.312 13.857 C 9.147 13.885 8.981 13.808 8.899 13.661 L 8.375 12.756 C 8.292 12.611 8.307 12.431 8.413 12.302 L 8.774 11.863 C 8.896 11.714 8.896 11.501 8.774 11.353 L 8.413 10.914 C 8.307 10.785 8.292 10.603 8.375 10.459 L 8.899 9.551 C 8.981 9.408 9.147 9.33 9.312 9.357 L 9.872 9.45 C 10.061 9.481 10.246 9.376 10.314 9.196 L 10.513 8.665 C 10.571 8.507 10.722 8.404 10.889 8.404 L 11.935 8.404 C 12.103 8.404 12.252 8.507 12.309 8.665 L 12.51 9.196 C 12.578 9.376 12.762 9.481 12.951 9.45 L 13.511 9.357 C 13.676 9.33 13.842 9.408 13.924 9.551 L 14.447 10.459 C 14.532 10.603 14.515 10.785 14.41 10.914 L 14.049 11.353 C 13.927 11.501 13.927 11.714 14.049 11.863 L 14.41 12.302 C 14.515 12.431 14.532 12.611 14.447 12.756 L 13.924 13.661 C 13.842 13.808 13.676 13.885 13.511 13.857 L 12.951 13.764 C 12.762 13.731 12.578 13.84 12.51 14.018 L 12.309 14.552 Z M 11.166 14.01 L 11.658 14.01 L 11.76 13.736 C 11.962 13.2 12.516 12.881 13.082 12.974 L 13.37 13.021 L 13.616 12.597 L 13.428 12.371 C 13.065 11.927 13.065 11.288 13.428 10.844 L 13.616 10.62 L 13.37 10.193 L 13.082 10.241 C 12.516 10.335 11.962 10.015 11.76 9.478 L 11.658 9.204 L 11.166 9.204 L 11.063 9.478 C 10.861 10.015 10.309 10.335 9.741 10.241 L 9.453 10.193 L 9.207 10.62 L 9.393 10.844 C 9.758 11.288 9.758 11.927 9.393 12.371 L 9.207 12.597 L 9.453 13.021 L 9.741 12.974 C 10.309 12.881 10.861 13.2 11.063 13.736 L 11.166 14.01 Z" fill="#CED0D6" style="stroke-width: 1;"/>
        <path fill-rule="evenodd" clip-rule="evenodd" d="M 11.66 14.01 L 11.169 14.01 L 11.067 13.736 C 10.864 13.2 10.312 12.881 9.744 12.974 L 9.456 13.021 L 9.212 12.597 L 9.396 12.371 C 9.762 11.927 9.762 11.288 9.396 10.844 L 9.212 10.62 L 9.456 10.193 L 9.744 10.241 C 10.312 10.335 10.864 10.015 11.067 9.478 L 11.169 9.204 L 11.66 9.204 L 11.764 9.478 C 11.965 10.015 12.52 10.335 13.086 10.241 L 13.372 10.193 L 13.618 10.62 L 13.434 10.844 C 13.067 11.288 13.067 11.927 13.434 12.371 L 13.618 12.597 L 13.372 13.021 L 13.086 12.974 C 12.52 12.881 11.965 13.2 11.764 13.736 L 11.66 14.01 Z M 12.217 11.608 C 12.217 12.049 11.856 12.408 11.414 12.408 C 10.973 12.408 10.613 12.049 10.613 11.608 C 10.613 11.165 10.973 10.807 11.414 10.807 C 11.856 10.807 12.217 11.165 12.217 11.608 Z" fill="#43454A" style="stroke-width: 1;"/>
    </g>
    <defs>
        <clipPath id="clip0_12362_11796">
            <rect width="16" height="16" fill="white"/>
        </clipPath>
    </defs>
</svg>
